<?xml version="1.0" encoding="utf-8"?>
<!-- Generator: Adobe Illustrator 23.0.2, SVG Export Plug-In . SVG Version: 6.00 Build 0)  -->
<svg version="1.1" id="Layer_1" xmlns="http://www.w3.org/2000/svg" xmlns:xlink="http://www.w3.org/1999/xlink" x="0px" y="0px"
	 viewBox="0 0 353 161" style="enable-background:new 0 0 353 161;" xml:space="preserve">
<style type="text/css">
	.st0{fill:url(#XMLID_7_);}
	.st1{fill:#282727;}
	.st2{font-family:'Montserrat-ExtraBold';}
	.st3{font-size:80.3923px;}
	.st4{letter-spacing:3;}
	.st5{fill:url(#XMLID_9_);}
</style>
<linearGradient id="XMLID_7_" gradientUnits="userSpaceOnUse" x1="4.5293" y1="73.135" x2="150.0963" y2="73.135">
	<stop  offset="0" style="stop-color:#FF3658"/>
	<stop  offset="0.3199" style="stop-color:#FF3C59"/>
	<stop  offset="0.7269" style="stop-color:#FF4B5D"/>
	<stop  offset="1" style="stop-color:#FF5A60"/>
</linearGradient>
<path id="XMLID_150_" class="st0" d="M100,8.8c-8.8-8.5-22.8-8.4-31.5,0.3L7.2,70.4c-1.7,1.7-2.6,4-2.6,6.4v58c0,5,4,9,9,9h10.3
	c5,0,9-4,9-9V92.4c0-2.4,0.9-4.7,2.6-6.4l46.2-46.2c3.4-3.4,8.7-3.5,12.3-0.4c3.6,3.1,9.1,8,17.6,15.5c21.1,18.5,38.5,0.3,38.5,0.3
	L100,8.8z"/>
<g id="XMLID_47_">
	<text transform="matrix(1 0 0 1 47.4023 143.2793)" class="st1 st2 st3 st4">Dipsea</text>
</g>
<linearGradient id="XMLID_9_" gradientUnits="userSpaceOnUse" x1="-3.4707" y1="275" x2="206.6596" y2="275">
	<stop  offset="0" style="stop-color:#FF3658"/>
	<stop  offset="0.3199" style="stop-color:#FF3C59"/>
	<stop  offset="0.7269" style="stop-color:#FF4B5D"/>
	<stop  offset="1" style="stop-color:#FF5A60"/>
</linearGradient>
<path id="XMLID_8_" class="st5" d="M134.3,182.2c-12.7-12.3-33-12.1-45.5,0.4L0.3,271c-2.4,2.4-3.8,5.7-3.8,9.2V364
	c0,7.2,5.8,13,13,13h14.8c7.2,0,13-5.8,13-13v-61.2c0-3.4,1.4-6.8,3.8-9.2l66.7-66.7c4.8-4.8,12.6-5.1,17.7-0.6
	c5.2,4.5,13.2,11.6,25.5,22.3c30.4,26.7,55.6,0.4,55.6,0.4L134.3,182.2z"/>
<g id="XMLID_5_">
	<text transform="matrix(1 0 0 1 64.4023 343.1453)" class="st1 st2" style="font-family:'Montserrat-ExtraBold'; font-size:72px; letter-spacing:2;">Dipsea</text>
</g>
<g id="XMLID_1_">
	<text transform="matrix(1 0 0 1 70.042 372.0105)" class="st1" style="font-family:'OpenSans'; font-size:19.8px;">airbnb property management</text>
</g>
</svg>
