<?xml version="1.0" encoding="utf-8"?>
<!-- Generator: Adobe Illustrator 23.0.4, SVG Export Plug-In . SVG Version: 6.00 Build 0)  -->
<svg version="1.1" id="Layer_1" xmlns="http://www.w3.org/2000/svg" xmlns:xlink="http://www.w3.org/1999/xlink" x="0px" y="0px"
	 viewBox="0 0 416.1 72" style="enable-background:new 0 0 416.1 72;" xml:space="preserve">
<style type="text/css">
	.st0{fill:#282727;}
	.st1{font-family:'Montserrat-ExtraBold';}
	.st2{font-size:72px;}
	.st3{letter-spacing:2;}
	.st4{fill:#3498DB;}
</style>
<g id="XMLID_5_">
	<text transform="matrix(1 0 0 1 111.5552 298.9989)" class="st0 st1 st2" style="letter-spacing:1;">Dipsea</text>
</g>
<g id="XMLID_1_">
	<text transform="matrix(1 0 0 1 117.1949 327.8641)" class="st0" style="font-family:'OpenSans'; font-size:19.8px;">Vacation Rental property management</text>
</g>
<g id="XMLID_2_">
	<text transform="matrix(1 0 0 1 144.0552 57.9989)" class="st0 st1 st2 st3">Dipsea</text>
</g>
<path class="st4" d="M129.1,36.9c-4.7,4.9-10.7,8.4-17.4,8.4c-4.2,0-9.8,0.3-13.1-2.8c-3-2.8-1.8-9.5,3-8.5
	c-7.4-4.4-12.8,2.5-19.5,4c-5.2,1.2-11.8-2.1-12.8-8c-0.9-5,3.1-9.7,7.8-10.2c2.9-0.3,5.5,0.3,7.7,2.4c1.1,1.1,3.6,4.2,1.4,5.3
	c4.1-1.2,3.7-5.3,3.1-9.4C88,9.7,80.9,2.4,72.6,2.4C58.5,2.3,47.8,9.4,39.8,21c-4.1,5.9-6.2,13.1-10.5,18.9
	C22.8,48.6,13,51.3,4.3,44.8c-1.6-1.2-3.1-2.5-4.3-4C3,51,10.5,60.4,20.7,62.8c8.8,2,19.9-1.2,26.2-8.3c3.3-3.8,4.8-6.6,9.5-7.9
	c-2.5,0.2-2.3,6-1.7,7.8c1.6,4.4,7.2,6.7,11.3,7.4c5.9,0.9,9-1.9,12.9-5.8c3.1-3.2,7.4-7.6,12.2-5.6c-1.1-0.1-1.8,0.8-2,1.9
	c-0.4,2.1,1.4,3.7,3,4.6c3,1.6,9.3,2.3,12.5,1.4c3.7-1,7.4-2.5,10.4-4.8C121.8,48.6,129.1,36.9,129.1,36.9z"/>
</svg>
