<?xml version="1.0" encoding="utf-8"?>
<!-- Generator: Adobe Illustrator 23.0.2, SVG Export Plug-In . SVG Version: 6.00 Build 0)  -->
<svg version="1.1" id="Layer_1" xmlns="http://www.w3.org/2000/svg" xmlns:xlink="http://www.w3.org/1999/xlink" x="0px" y="0px"
	 viewBox="0 0 545 545" style="enable-background:new 0 0 545 545;" xml:space="preserve">
<path id="XMLID_150_" d="M337,119.7c-21-20.3-54.3-20-74.9,0.6L116.5,266c-4,4-6.3,9.4-6.3,15.1v137.8c0,11.8,9.6,21.4,21.4,21.4
	H156c11.8,0,21.4-9.6,21.4-21.4V318.2c0-5.7,2.3-11.1,6.3-15.1l109.8-109.8c8-8,20.7-8.4,29.2-1c8.5,7.5,21.7,19,41.9,36.8
	c50.1,43.9,91.6,0.7,91.6,0.7L337,119.7z"/>
</svg>
