<?xml version="1.0" encoding="utf-8"?>
<!-- Generator: Adobe Illustrator 23.0.4, SVG Export Plug-In . SVG Version: 6.00 Build 0)  -->
<svg version="1.1" id="Layer_1" xmlns="http://www.w3.org/2000/svg" xmlns:xlink="http://www.w3.org/1999/xlink" x="0px" y="0px"
	 viewBox="0 0 100 100" style="enable-background:new 0 0 100 100;" xml:space="preserve">
<style type="text/css">
	.st0{fill:#999999;}
	.st1{fill:#A3BFC2;}
</style>
<title>Calender</title>
<g>
	<g>
		<path class="st0" d="M-106.6,30.4c-3.9,0-7,3.1-7,7v54.1c0,3.9,3.1,7,7,7h60.1c3.9,0,7-3.1,7-7V37.4c0-3.9-3.1-7-7-7h-2.4v4.4
			c0,3-2.4,5.4-5.4,5.4s-5.4-2.4-5.4-5.4v-4.4h-33.7v4.4c0,3-2.4,5.4-5.4,5.4s-5.4-2.4-5.4-5.4v-4.4
			C-104.2,30.4-106.6,30.4-106.6,30.4z M-102.1,50h51.3c1.5-0.1,2.7,1.1,2.8,2.5v35c-0.1,1.5-1.3,2.6-2.8,2.5h-51.3
			c-1.5,0.1-2.7-1.1-2.8-2.5v-35C-104.9,51.1-103.6,49.9-102.1,50z"/>
		<path class="st0" d="M-101.3,24.1v10.7c0,1.4,1.1,2.6,2.6,2.6c1.4,0,2.6-1.1,2.6-2.6V24.1c0-1.4-1.1-2.6-2.6-2.6
			S-101.3,22.7-101.3,24.1z"/>
		<path class="st0" d="M-56.8,24.1v10.7c0,1.4,1.1,2.6,2.6,2.6c1.4,0,2.6-1.1,2.6-2.6V24.1c0-1.4-1.1-2.6-2.6-2.6
			S-56.8,22.7-56.8,24.1L-56.8,24.1z"/>
	</g>
	<rect x="-100" y="54.3" class="st0" width="13.6" height="13.9"/>
	<rect x="-83" y="54.3" class="st0" width="13.6" height="13.9"/>
	<rect x="-100" y="71.4" class="st0" width="13.6" height="13.9"/>
	<rect x="-83" y="71.4" class="st0" width="13.6" height="13.9"/>
	<rect x="-65.2" y="54.3" class="st0" width="13.6" height="13.9"/>
	<rect x="-65.2" y="71.4" class="st0" width="13.6" height="13.9"/>
</g>
<g id="play">
	<g>
		<g>
			<path class="st1" d="M65.2,34.2c3.3,0,4.5,2.2,2.7,5l-14.7,22c-1.8,2.7-4.8,2.7-6.7,0l-14.7-22c-1.8-2.7-0.6-5,2.7-5H65.2z"/>
		</g>
	</g>
</g>
</svg>
