<?xml version="1.0" encoding="utf-8"?>
<!-- Generator: Adobe Illustrator 23.0.4, SVG Export Plug-In . SVG Version: 6.00 Build 0)  -->
<svg version="1.1" id="Capa_1" xmlns="http://www.w3.org/2000/svg" xmlns:xlink="http://www.w3.org/1999/xlink" x="0px" y="0px"
	 viewBox="0 0 46 46" style="enable-background:new 0 0 46 46;" xml:space="preserve">
<style type="text/css">
	.st0{fill:#4B4D4F;}
</style>
<g>
	<g>
		<path class="st0" d="M31.3,0c1.4,0,2.8,0.5,3.9,1.6c2.3,2.2,2.4,5.8,0.2,8.1L22.6,23l12.7,13.3c2.2,2.3,2.1,5.9-0.2,8.1
			s-5.9,2.1-8.1-0.2L10.6,27c-2.1-2.2-2.1-5.7,0-7.9L27.1,1.8C28.3,0.6,29.8,0,31.3,0z"/>
	</g>
</g>
<g>
	<g>
		<path class="st0" d="M181.2-42.7c-2,2-4.7,2.6-5.9,1.4l-2.3-2.4l7.2-7.4l2.4,2.4C183.9-47.5,183.2-44.8,181.2-42.7z"/>
		<path class="st0" d="M178.2-53.4l-15-15c8.7-13.1,5.1-30.7-7.9-39.4c-4.7-3.1-10.2-4.8-15.8-4.8c-15.7,0-28.7,12.7-28.5,28.5
			c0.2,16,12.9,28.7,28.5,28.4c5.9,0,11.7-1.9,16.5-5.3l15,15L178.2-53.4z M159.5-83.7c0,11-9,20-20,20s-20-9-20-20s9-20,20-20
			S159.5-94.8,159.5-83.7z"/>
	</g>
	<path class="st0" d="M139.7-65.3c-10.2,0-18.5-8.3-18.5-18.5s8.3-18.5,18.5-18.5s18.5,8.3,18.5,18.5l0,0
		C158.1-73.5,149.9-65.3,139.7-65.3z M139.7-101.3c-9.7,0-17.5,7.8-17.5,17.5s7.8,17.5,17.5,17.5s17.5-7.8,17.5-17.5
		C157.2-93.4,149.3-101.3,139.7-101.3L139.7-101.3L139.7-101.3z"/>
</g>
</svg>
