<?xml version="1.0" encoding="utf-8"?>
<!-- Generator: Adobe Illustrator 23.0.4, SVG Export Plug-In . SVG Version: 6.00 Build 0)  -->
<svg version="1.1" id="Layer_1" xmlns="http://www.w3.org/2000/svg" xmlns:xlink="http://www.w3.org/1999/xlink" x="0px" y="0px"
	 viewBox="0 0 100 100" style="enable-background:new 0 0 100 100;" xml:space="preserve">
<style type="text/css">
	.st0{fill:#A3BFC2;}
</style>
<title>Book</title>
<path class="st0" d="M74.3,19.5c-0.7-0.4-1.5-0.6-2.3-0.7c-0.2,0-0.4,0-0.6,0H32c-3.4,0-6.1,2.7-6.1,6.1V28h-2.4
	c-0.6,0-1.1,0.5-1.1,1.1l0,0v5.6c0,0.6,0.5,1.1,1.1,1.1h2.3V40h-2.3c-0.6,0-1.1,0.5-1.1,1.1v5.6c0,0.6,0.5,1.1,1.1,1.1h2.3V52h-2.3
	c-0.6,0-1.1,0.5-1.1,1.1v5.6c0,0.6,0.5,1.1,1.1,1.2c0,0,0,0,0.1,0h2.3v4.2h-2.3c-0.6,0-1.1,0.5-1.1,1.1l0,0V71
	c0,0.6,0.5,1.1,1.1,1.1l0,0h2.3v3.7c0,3.4,2.8,6.1,6.1,6.1h39.4c0.2,0,0.4,0,0.6,0c0.8-0.1,1.6-0.3,2.3-0.7c0.5-0.3,1-0.6,1.4-1
	c1.2-1.1,1.8-2.7,1.8-4.3v-51c0-1.6-0.6-3.2-1.8-4.3C75.3,20.1,74.8,19.8,74.3,19.5z M67,31.7c-0.3-0.3-0.6-0.4-1-0.4
	s-0.7,0.1-1,0.4l-4.4,4.5V21h10.8v15.2L67,31.7z"/>
</svg>
