<?xml version="1.0" encoding="utf-8"?>
<!-- Generator: Adobe Illustrator 23.0.1, SVG Export Plug-In . SVG Version: 6.00 Build 0)  -->
<svg version="1.1" id="Layer_1" xmlns="http://www.w3.org/2000/svg" xmlns:xlink="http://www.w3.org/1999/xlink" x="0px" y="0px"
	 viewBox="0 0 100 100" style="enable-background:new 0 0 100 100;" xml:space="preserve">
<style type="text/css">
	.st0{fill:#999999;}
</style>
<title>Calender</title>
<g>
	<g>
		<path class="st0" d="M19.9,20.4c-3.9,0-7,3.1-7,7v54.1c0,3.9,3.1,7,7,7h60.1c3.9,0,7-3.1,7-7V27.4c0-3.9-3.1-7-7-7h-2.4v4.4
			c0,3-2.4,5.4-5.4,5.4s-5.4-2.4-5.4-5.4v-4.4H33.1v4.4c0,3-2.4,5.4-5.4,5.4s-5.4-2.4-5.4-5.4v-4.4H19.9z M24.4,40h51.3
			c1.5-0.1,2.7,1.1,2.8,2.5v35c-0.1,1.5-1.3,2.6-2.8,2.5H24.4c-1.5,0.1-2.7-1.1-2.8-2.5v-35C21.6,41.1,22.9,39.9,24.4,40z"/>
		<path class="st0" d="M25.2,14.1v10.7c0,1.4,1.1,2.6,2.6,2.6c1.4,0,2.6-1.1,2.6-2.6V14.1c0-1.4-1.1-2.6-2.6-2.6
			C26.3,11.5,25.2,12.7,25.2,14.1z"/>
		<path class="st0" d="M69.7,14.1v10.7c0,1.4,1.1,2.6,2.6,2.6c1.4,0,2.6-1.1,2.6-2.6V14.1c0-1.4-1.1-2.6-2.6-2.6
			C70.8,11.5,69.7,12.7,69.7,14.1L69.7,14.1z"/>
	</g>
	<rect x="26.5" y="44.3" class="st0" width="13.6" height="13.9"/>
	<rect x="43.5" y="44.3" class="st0" width="13.6" height="13.9"/>
	<rect x="26.5" y="61.4" class="st0" width="13.6" height="13.9"/>
	<rect x="43.5" y="61.4" class="st0" width="13.6" height="13.9"/>
	<rect x="61.3" y="44.3" class="st0" width="13.6" height="13.9"/>
	<rect x="61.3" y="61.4" class="st0" width="13.6" height="13.9"/>
</g>
</svg>
