<?xml version="1.0" encoding="utf-8"?>
<!-- Generator: Adobe Illustrator 23.0.4, SVG Export Plug-In . SVG Version: 6.00 Build 0)  -->
<svg version="1.1" id="Layer_1" xmlns="http://www.w3.org/2000/svg" xmlns:xlink="http://www.w3.org/1999/xlink" x="0px" y="0px"
	 viewBox="0 0 100 100" style="enable-background:new 0 0 100 100;" xml:space="preserve">
<style type="text/css">
	.st0{fill:#A3BFC2;}
</style>
<title>Checkmark</title>
<path class="st0" d="M75.4,20.3c-1.9,0-3.7,0.2-5.6,0.5c-1.7,0.2-3.3,0.6-4.9,1.3c-1.6,1.1-3.1,2.4-4.4,3.9c-2.7,3-5.2,6.2-7.4,9.5
	c-3,4.3-5.6,8.4-7.8,12.4c-2,3.5-4,7.4-6,11.5c-1.3-1.6-2.7-3.1-4.4-4.2c-1.6-1.2-3.5-1.9-5.5-2c-2.1,0.1-4.1,0.9-5.7,2.3
	c-2.1,1.6-3.2,3.4-3.2,5.3c0,1.5,0.9,3.2,2.8,5.2c2.4,2.6,4.6,5.3,6.5,8.3c0.8,1.2,1.6,2.4,2.5,3.6c0.6,0.6,1.3,1.1,2.1,1.4
	c1.3,0.4,2.7,0.5,4.1,0.4c2.7,0,4.5-0.3,5.6-0.9s2-1.4,2.6-2.5c1-1.9,1.8-3.9,2.6-5.9c3.3-8.1,7.4-16,12.2-23.4
	c5-8,10-14.2,14.7-18.5c0.8-0.7,1.6-1.5,2.2-2.4c0.4-0.7,0.6-1.4,0.6-2.2c0-1-0.4-1.9-1.1-2.6C77.5,20.6,76.5,20.3,75.4,20.3z"/>
</svg>
