<?xml version="1.0" encoding="utf-8"?>
<!-- Generator: Adobe Illustrator 23.0.1, SVG Export Plug-In . SVG Version: 6.00 Build 0)  -->
<svg version="1.1" id="Layer_1" xmlns="http://www.w3.org/2000/svg" xmlns:xlink="http://www.w3.org/1999/xlink" x="0px" y="0px"
	 viewBox="0 0 100 100" style="enable-background:new 0 0 100 100;" xml:space="preserve">
<style type="text/css">
	.st0{fill:#999999;}
</style>
<title>Diamond</title>
<g>
	<polygon class="st0" points="12.9,37.8 16.2,41.9 48.8,82.2 35.3,37.8 	"/>
	<polygon class="st0" points="75.2,16.3 75.2,16.3 75.2,16.3 	"/>
	<polygon class="st0" points="51.3,82.1 83.8,41.9 87.1,37.8 65.9,37.8 	"/>
	<polygon class="st0" points="87.8,37 87.8,37 87.8,37 	"/>
	<polygon class="st0" points="74.4,16.3 50.9,16.3 65.3,35.6 	"/>
	<polygon class="st0" points="24.4,17 12.8,36.2 34.6,36.2 	"/>
	<polygon class="st0" points="87.2,36.2 75.6,17 66.7,36.2 	"/>
	<polygon class="st0" points="87.8,37 87.8,37 87.8,37 	"/>
	<polygon class="st0" points="49.1,16.3 25.7,16.3 35.9,35.6 	"/>
	<polygon class="st0" points="50,17.6 37.3,36.2 63.9,36.2 	"/>
	<path class="st0" d="M87.8,37L87.8,37l-0.5-0.8H66.7l9-19.1l-0.4-0.7h-0.8l-9,19.3L50.9,16.3h-1.8L35.9,35.6L25.7,16.3h-0.8
		L24.4,17l10.2,19.2H12.8L12.2,37l0.7,0.8h22.4l13.5,44.4l1.2,1.5l1.3-1.6L66,37.8h21.1L87.8,37L87.8,37z M50,17.6l13.9,18.6H37.3
		L50,17.6z M50,81.4L36.8,37.8h27.6L50,81.4z"/>
	<polygon class="st0" points="50,83.7 64.5,37.8 36.8,37.8 	"/>
</g>
</svg>
