<?xml version="1.0" encoding="utf-8"?>
<!-- Generator: Adobe Illustrator 23.0.4, SVG Export Plug-In . SVG Version: 6.00 Build 0)  -->
<svg version="1.1" id="Layer_1" xmlns="http://www.w3.org/2000/svg" xmlns:xlink="http://www.w3.org/1999/xlink" x="0px" y="0px"
	 viewBox="0 0 100 100" style="enable-background:new 0 0 100 100;" xml:space="preserve">
<style type="text/css">
	.st0{fill:#A3BFC2;}
</style>
<polygon class="st0" points="12.9,37.8 16.2,41.9 48.8,82.2 35.3,37.8 "/>
<path class="st0" d="M75.2,16.3L75.2,16.3L75.2,16.3z"/>
<polygon class="st0" points="51.3,82.1 83.8,41.9 87.1,37.8 65.9,37.8 "/>
<path class="st0" d="M87.8,37L87.8,37L87.8,37z"/>
<polygon class="st0" points="74.4,16.3 50.9,16.3 65.3,35.6 "/>
<polygon class="st0" points="24.4,17 12.8,36.2 34.6,36.2 "/>
<polygon class="st0" points="87.2,36.2 75.6,17 66.7,36.2 "/>
<path class="st0" d="M87.8,37L87.8,37L87.8,37z"/>
<polygon class="st0" points="49.1,16.3 25.7,16.3 35.9,35.6 "/>
<polygon class="st0" points="50,17.6 37.3,36.2 63.9,36.2 "/>
<polygon class="st0" points="50,83.7 64.5,37.8 36.8,37.8 "/>
</svg>
