<?xml version="1.0" encoding="utf-8"?>
<!-- Generator: Adobe Illustrator 23.0.4, SVG Export Plug-In . SVG Version: 6.00 Build 0)  -->
<svg version="1.1" id="Layer_1" xmlns="http://www.w3.org/2000/svg" xmlns:xlink="http://www.w3.org/1999/xlink" x="0px" y="0px"
	 viewBox="0 0 100 100" style="enable-background:new 0 0 100 100;" xml:space="preserve">
<style type="text/css">
	.st0{fill:#A3BFC2;}
</style>
<title>Email</title>
<g>
	<path class="st0" d="M15,69.6l30.8-18.2l-31-18.2v35.3C14.8,68.9,14.9,69.3,15,69.6z"/>
	<path class="st0" d="M47.1,52.3L15.5,70.9c0.9,1.5,2.5,2.5,4.2,2.5h60.6c1.9,0,3.6-1.1,4.4-2.8l-31-18.3l-3.3,1.9L47.1,52.3z"/>
	<path class="st0" d="M85.2,68.5V33.7L55.1,51.5l30,17.7C85.1,69,85.2,68.7,85.2,68.5z"/>
	<path class="st0" d="M19.7,26.6c-2.7,0-4.9,2.2-4.9,4.9l0,0v0.1l35.6,21l34.8-20.5v-0.6c0-2.7-2.2-4.9-4.9-4.9l0,0
		C80.3,26.6,19.7,26.6,19.7,26.6z"/>
</g>
</svg>
