<?xml version="1.0" encoding="utf-8"?>
<!-- Generator: Adobe Illustrator 23.0.4, SVG Export Plug-In . SVG Version: 6.00 Build 0)  -->
<svg version="1.1" id="Layer_1" xmlns="http://www.w3.org/2000/svg" xmlns:xlink="http://www.w3.org/1999/xlink" x="0px" y="0px"
	 viewBox="0 0 100 100" style="enable-background:new 0 0 100 100;" xml:space="preserve">
<style type="text/css">
	.st0{fill:#A3BFC2;}
</style>
<title>Graph</title>
<g>
	<path class="st0" d="M41.1,23.7h17.8c0.6,0,1,0.5,1,1v13.6c0,0.6-0.5,1-1,1H41.1c-0.6,0-1-0.5-1-1V24.8
		C40.1,24.2,40.6,23.7,41.1,23.7z"/>
	<path class="st0" d="M66.4,60.6h17.8c0.6,0,1,0.5,1,1v13.7c0,0.6-0.5,1-1,1H66.4c-0.6,0-1-0.5-1-1V61.6
		C65.3,61,65.8,60.6,66.4,60.6z"/>
	<path class="st0" d="M41.1,60.6h17.8c0.6,0,1,0.5,1,1v13.7c0,0.6-0.5,1-1,1H41.1c-0.6,0-1-0.5-1-1V61.6
		C40.1,61,40.6,60.6,41.1,60.6z"/>
	<path class="st0" d="M15.9,60.6h17.8c0.6,0,1,0.5,1,1v13.7c0,0.6-0.5,1-1,1H15.9c-0.6,0-1-0.5-1-1V61.6
		C14.9,61,15.3,60.6,15.9,60.6z"/>
	<path class="st0" d="M77.4,48.8c0-0.6-0.4-1-1-1H52v-5.7c0-0.6-0.4-1-1-1h-2c-0.6,0-1,0.4-1,1v5.6H23.6c-0.6,0-1,0.4-1,1v0.4v0.1
		v8.2c0,0.6,0.4,1,1,1h2c0.6,0,1-0.4,1-1v-5.6H48v5.6c0,0.6,0.4,1,1,1h2c0.6,0,1-0.4,1-1v-5.6h21.3v5.8c0,0.6,0.4,1,1,1h2
		c0.6,0,1-0.4,1-1L77.4,48.8L77.4,48.8z"/>
</g>
</svg>
