<?xml version="1.0" encoding="utf-8"?>
<!-- Generator: Adobe Illustrator 23.0.4, SVG Export Plug-In . SVG Version: 6.00 Build 0)  -->
<svg version="1.1" id="Layer_1" xmlns="http://www.w3.org/2000/svg" xmlns:xlink="http://www.w3.org/1999/xlink" x="0px" y="0px"
	 viewBox="0 0 100 100" style="enable-background:new 0 0 100 100;" xml:space="preserve">
<style type="text/css">
	.st0{fill:#A3BFC2;}
</style>
<title>House</title>
<path class="st0" d="M73.1,81c1.3,0,2.3-1,2.3-2.3l0,0V54.2h6c2.2,0,4-1.8,4-4c0-1.2-0.5-2.3-1.5-3l-7.8-6.8V29.1
	c0-1.3-1.1-2.4-2.4-2.4h-4.9c-1.3,0-2.4,1.1-2.4,2.4l0,0V32L52.6,20c-1.5-1.3-3.7-1.3-5.2,0L16,47.2c-1.7,1.5-1.8,4-0.4,5.6
	c0.7,0.8,1.8,1.3,3,1.4h6v24.5c0,1.3,1,2.3,2.3,2.3h13.5V63.2c0-2.5,2-4.6,4.6-4.6l0,0h10c2.5,0,4.6,2,4.6,4.6l0,0V81H73.1z"/>
</svg>
