<?xml version="1.0" encoding="utf-8"?>
<!-- Generator: Adobe Illustrator 23.0.4, SVG Export Plug-In . SVG Version: 6.00 Build 0)  -->
<svg version="1.1" id="Layer_1" xmlns="http://www.w3.org/2000/svg" xmlns:xlink="http://www.w3.org/1999/xlink" x="0px" y="0px"
	 viewBox="0 0 100 100" style="enable-background:new 0 0 100 100;" xml:space="preserve">
<style type="text/css">
	.st0{fill:#A3BFC2;}
</style>
<title>MagnifyGlass</title>
<g>
	<g>
		<path class="st0" d="M83.8,84c-2,2-4.7,2.6-5.9,1.4L75.6,83l7.2-7.4l2.4,2.4C86.5,79.3,85.8,81.9,83.8,84z"/>
		<path class="st0" d="M80.8,73.3l-15-15c8.7-13.1,5.1-30.7-7.9-39.4c-4.7-3.1-10.2-4.8-15.8-4.8c-15.7,0-28.7,12.7-28.5,28.5
			c0.2,16,12.9,28.7,28.5,28.5c5.9,0,11.7-1.9,16.5-5.3l15,15L80.8,73.3z M62.1,43c0,11-9,20-20,20s-20-9-20-20s9-20,20-20
			S62.1,32,62.1,43z"/>
	</g>
</g>
</svg>
