<?xml version="1.0" encoding="utf-8"?>
<!-- Generator: Adobe Illustrator 23.0.1, SVG Export Plug-In . SVG Version: 6.00 Build 0)  -->
<svg version="1.1" id="Layer_1" xmlns="http://www.w3.org/2000/svg" xmlns:xlink="http://www.w3.org/1999/xlink" x="0px" y="0px"
	 viewBox="0 0 100 100" style="enable-background:new 0 0 100 100;" xml:space="preserve">
<style type="text/css">
	.st0{fill:#999999;}
</style>
<title>Pie-Chart</title>
<g>
	<path class="st0" d="M71.9,23.6c-5.1-4.5-11.6-7.1-18.4-7.2l-0.2,26.3L71.9,23.6z"/>
	<path class="st0" d="M48.5,16.3c-18.6,0-32.4,15.1-32.4,33.7c0,18.6,15.1,33.7,33.7,33.7l0,0c13.1,0,25.2-7.7,29.7-17.7L49.2,50
		V16.3L48.5,16.3z"/>
	<g>
		<polygon class="st0" points="65.9,35.7 61,51.3 63.8,52.8 70.8,30.7 		"/>
		<polygon class="st0" points="59.6,42.2 57.4,49.3 60.2,50.8 64.4,37.2 		"/>
		<path class="st0" d="M79.6,32.8L72,57.1l2.8,1.5l6.8-21.8C81.1,35.5,80.4,34.1,79.6,32.8z"/>
		<path class="st0" d="M82.2,38.3l-6.5,20.8l2.8,1.5l5.2-16.4C83.3,42.2,82.8,40.2,82.2,38.3z"/>
		<path class="st0" d="M83.9,48.1c0-0.5,0-1.1,0-1.6L79.3,61l1.7,0.9C83,57.6,84,52.9,83.9,48.1z"/>
		<path class="st0" d="M74.8,26.5l-2.6,2.7l-7.5,24l2.8,1.5l8.5-27C75.6,27.3,75.2,26.9,74.8,26.5z"/>
		<polygon class="st0" points="54.3,47.7 56.5,48.9 58.2,43.7 		"/>
		<path class="st0" d="M76.7,28.6l-8.4,26.6l2.8,1.5L79,31.8C78.3,30.6,77.5,29.6,76.7,28.6z"/>
	</g>
</g>
</svg>
