<?xml version="1.0" encoding="utf-8"?>
<!-- Generator: Adobe Illustrator 23.0.1, SVG Export Plug-In . SVG Version: 6.00 Build 0)  -->
<svg version="1.1" id="Layer_1" xmlns="http://www.w3.org/2000/svg" xmlns:xlink="http://www.w3.org/1999/xlink" x="0px" y="0px"
	 viewBox="0 0 100 100" style="enable-background:new 0 0 100 100;" xml:space="preserve">
<style type="text/css">
	.st0{fill:#999999;}
</style>
<title>Sheild</title>
<g>
	<path class="st0" d="M50,16.8L50,16.8c-3.8,0.7-7.5,1.8-11,3.3c-5.2,2-10.3,2.7-14.6,3.8S21,30.1,21,30.1s1.6,20.6,2.2,24
		c3.1,16.2,26.4,29.2,26.4,29.2l0,0c0,0,23.8-12.6,27-29.1c0.7-3.5,2.3-24.6,2.3-24.6s0.8-5.2-3.6-6.2s-9.7-1.7-15-3.6
		S51.6,16.9,50,16.8L50,16.8L50,16.8z M58.4,24.3c3.8,1.3,7.7,2.2,11.6,2.9c0,0,3.2,0.8,3.7,0.9c0,0,0.1,0,0.1,0.9
		c0,0.1,0,0.2,0,0.3c-0.6,8-1.8,21.6-2.3,24c-1.4,7.1-7.8,13.7-12.9,17.9c-2.8,2.3-5.8,4.4-8.9,6.3c-3-1.9-6-4.1-8.7-6.4
		c-5.1-4.3-11.4-10.9-12.8-17.9c-0.4-2.3-1.6-15.6-2.2-23.5c0-0.1,0-0.2,0-0.3c0-0.3,0-0.7,0-1c1.1-0.3,2.3-0.5,3.6-0.8
		c3.8-0.7,7.6-1.8,11.3-3.1c2.9-1.2,5.9-2.1,9-2.9C52.9,22.3,55.7,23.2,58.4,24.3L58.4,24.3z"/>
	<path class="st0" d="M49.9,23.5L49.9,23.5c-2.8,0.6-5.5,1.4-8.1,2.5c-3.9,1.6-7.7,2.1-10.8,3s-2.6,4.8-2.6,4.8S29.6,50,30,52.7
		c2.3,12.7,19.6,22.9,19.6,22.9l0,0c0,0,17.6-9.9,19.9-22.8c0.5-2.7,1.7-19.2,1.7-19.2s0.6-4.1-2.7-4.9s-7.2-1.3-11.1-2.8
		C55.1,24.8,52.6,24,49.9,23.5L49.9,23.5L49.9,23.5z"/>
</g>
</svg>
