<?xml version="1.0" encoding="utf-8"?>
<!-- Generator: Adobe Illustrator 23.0.1, SVG Export Plug-In . SVG Version: 6.00 Build 0)  -->
<svg version="1.1" id="Layer_1" xmlns="http://www.w3.org/2000/svg" xmlns:xlink="http://www.w3.org/1999/xlink" x="0px" y="0px"
	 viewBox="0 0 100 100" style="enable-background:new 0 0 100 100;" xml:space="preserve">
<style type="text/css">
	.st0{fill:#999999;}
</style>
<title>Telephone</title>
<g>
	<path class="st0" d="M37.1,45.3l2.1-2.4c3.6-4,3.3-10.2-0.7-13.9c0,0,0,0,0,0l-3.6-3.3c-4-3.6-10.2-3.3-13.9,0.7c0,0,0,0,0,0
		l-2.1,2.4c-0.3,0.3-0.5,0.7-0.8,1L18,30c-2,1.7-3.7,5.9-2.7,11c4.7,24,24.6,42,49,44.3c2.9,0.3,5.9-0.3,8.4-1.8
		c0.9-0.5,1.7-1.2,2.4-1.9l2.1-2.4c3.6-4,3.3-10.2-0.7-13.9l-3.6-3.3c-4-3.6-10.2-3.3-13.9,0.7c0,0,0,0,0,0l-2.1,2.4
		c-0.9,1-1.6,2.2-2,3.4l-0.2,0.6L54.1,69c-9.5-3.8-17.3-10.9-21.9-20.1L32,48.3l0.7-0.2C34.3,47.6,35.9,46.6,37.1,45.3z"/>
	<path class="st0" d="M49,16.9c0,1.3,1,2.3,2.3,2.3l0,0c16.1,0,29.1,13,29.1,29.1c0,1.3,1,2.3,2.3,2.3s2.3-1,2.3-2.3
		c0-18.6-15.1-33.7-33.7-33.7C50.1,14.7,49.1,15.7,49,16.9z"/>
	<path class="st0" d="M48.7,28.1c0,1.3,1,2.3,2.3,2.3c0,0,0,0,0,0c10.1,0,18.2,8.2,18.2,18.3c0,1.3,1,2.3,2.3,2.3s2.3-1,2.3-2.3
		c0-12.6-10.2-22.8-22.8-22.8C49.7,25.8,48.7,26.9,48.7,28.1C48.7,28.1,48.7,28.1,48.7,28.1z"/>
</g>
</svg>
