<?xml version="1.0" encoding="utf-8"?>
<!-- Generator: Adobe Illustrator 23.0.4, SVG Export Plug-In . SVG Version: 6.00 Build 0)  -->
<svg version="1.1" id="Layer_1" xmlns="http://www.w3.org/2000/svg" xmlns:xlink="http://www.w3.org/1999/xlink" x="0px" y="0px"
	 viewBox="0 0 100 100" style="enable-background:new 0 0 100 100;" xml:space="preserve">
<style type="text/css">
	.st0{fill:#A3BFC2;}
</style>
<title>Thumbs-Up</title>
<g>
	<path class="st0" d="M31,44.5H14.2c-1.9-0.1-3.4,1.4-3.5,3.3c0,0.2,0,0.3,0,0.5l-0.2,32.9c0,0.1,0,0.2,0,0.3c0.3,2.2,2.2,3.9,4.5,4
		h21.4c1.9,0,3.4-1.4,3.5-3.3c0-0.1,0-0.3,0-0.4l-4.6-34.3h-0.1C34.5,45.7,32.9,44.5,31,44.5z"/>
	<path class="st0" d="M89.4,58.7c-0.2-2.2-1.3-4.3-3.1-5.7c1.2-0.9,2-2.3,2.1-3.8c0.2-2.9-0.7-5.8-2.6-8c-1.7-1.8-4-2.8-6.5-2.7
		H64.1c0-2.2,0-5.7,0.1-8.7c0.2-4.4-2.2-9.9-4.7-12.7c-0.9-1.3-2.3-2.2-3.9-2.5c-0.4-0.1-0.9-0.1-1.3-0.1c-2.8,0-6.1,1.1-6.8,3.6
		c-0.2,1.1-0.1,2.3,0.3,3.4c0.6,2.1,0.7,4.2,0.3,6.3c-0.8,4.7-7.9,16-10.2,18.1l4.8,35.3c3.1,1.2,10.4,3.9,14.2,3.9H76
		c1.3,0,5.6-0.3,6.9-3.9c0.6-1.6,0.5-3.3-0.2-4.8c0-0.1,0-0.2,0-0.3V76c2.2-0.5,3.9-2.3,4.3-4.5c0.4-2.1,0-4.3-1.2-6
		C88.3,64.2,89.7,61.8,89.4,58.7z"/>
</g>
</svg>
