<?xml version="1.0" encoding="utf-8"?>
<!-- Generator: Adobe Illustrator 23.0.1, SVG Export Plug-In . SVG Version: 6.00 Build 0)  -->
<svg version="1.1" id="Layer_1" xmlns="http://www.w3.org/2000/svg" xmlns:xlink="http://www.w3.org/1999/xlink" x="0px" y="0px"
	 viewBox="0 0 100 100" style="enable-background:new 0 0 100 100;" xml:space="preserve">
<style type="text/css">
	.st0{fill:#999999;}
</style>
<title>Tools</title>
<g>
	<path class="st0" d="M72.2,22c0-3.8-1.7-7.4-4.7-9.7c-0.3-0.2-0.7-0.1-0.9,0.2c-0.1,0.1-0.1,0.2-0.1,0.3v8.3L60.2,25l-6.2-3.8v-8.4
		c0-0.4-0.3-0.6-0.7-0.6c-0.1,0-0.2,0-0.3,0.1c-5.3,4-6.2,11.6-2.2,16.8c1.2,1.6,2.9,2.9,4.7,3.7v33.9c-6.1,2.6-8.9,9.7-6.2,15.8
		c0.8,1.9,2.1,3.5,3.7,4.7c0.3,0.2,0.7,0.1,0.9-0.2c0.1-0.1,0.1-0.2,0.1-0.3v-8.3l6.2-3.8l6.2,3.8v8.3c0,0.4,0.3,0.6,0.7,0.6
		c0.1,0,0.2,0,0.3-0.1c5.3-4,6.2-11.6,2.2-16.8c-1.2-1.6-2.9-2.9-4.7-3.7V32.8C69.2,31,72.1,26.7,72.2,22z"/>
	<path class="st0" d="M40.9,46.9h-3.7V24.6l1.6-2.6l-2-9.9h-4l-2,9.9l1.6,2.6v22.3h-3.7c-0.5,0-0.9,0.5-0.9,1v1.8c0,0.5,0.4,1,0.9,1
		H29c-0.7,1.3-1.1,2.8-1.1,4.3v25.2c0,4.2,3,7.7,6.7,7.7h0.5c3.7,0,6.7-3.4,6.7-7.7V55.1c0-1.5-0.4-3-1.1-4.3h0.2
		c0.5,0,0.9-0.5,0.9-1V48C41.9,47.4,41.5,47,40.9,46.9C40.9,46.9,40.9,46.9,40.9,46.9z M31.1,82.7h-1.5V55.1h1.5V82.7z M35.5,82.7
		H34V55.1h1.5V82.7z M39.9,82.7h-1.5V55.1h1.5V82.7z"/>
</g>
</svg>
